<?xml version="1.0" ?><svg enable-background="new 0 0 64 64" version="1.1" viewBox="0 0 64 64" xml:space="preserve" xmlns="http://www.w3.org/2000/svg" xmlns:xlink="http://www.w3.org/1999/xlink"><g id="Grid"/><g id="row_3"/><g id="row_2"><g id="bank_x5F_office"><rect fill="#263238" height="1" width="14" x="25" y="58"/><path d="M52,46H12v1c0.8,0.8,1.2,1.2,2,2h11l7,10l7-10h11c0.8-0.8,1.2-1.2,2-2V46z" fill="#F44336"/><path d="M50,5H14c-0.8,0.8-1.2,1.2-2,2v39h40V7C51.2,6.2,50.8,5.8,50,5z" fill="#FFECB3"/><g><rect fill="#01579B" height="37" width="14" x="25" y="9"/><rect fill="#FFC107" height="6" width="2" x="31" y="22"/><rect fill="#FFC107" height="6" width="2" x="31" y="11"/><rect fill="#FFC107" height="6" width="2" x="27" y="11"/><rect fill="#FFC107" height="6" width="2" x="35" y="11"/><rect fill="#FFC107" height="6" width="2" x="31" y="30"/><rect fill="#FFC107" height="6" width="2" x="31" y="38"/></g><g><rect fill="#263238" height="10" width="10" x="15" y="22"/><rect fill="#FFC107" height="6" width="4" x="18" y="24"/></g><g><rect fill="#263238" height="18" width="16" x="39" y="28"/><rect fill="#FFC107" height="6" width="4" x="42" y="30"/><rect fill="#FFC107" height="6" width="4" x="42" y="38"/><rect fill="#FFC107" height="6" width="4" x="48" y="30"/><rect fill="#FFC107" height="6" width="4" x="48" y="38"/></g><g><rect fill="#01579B" height="14" width="16" x="9" y="32"/><rect fill="#FFC107" height="6" width="4" x="12" y="38"/><rect fill="#FFC107" height="6" width="4" x="18" y="38"/></g></g></g><g id="row_1"/></svg>